<?xml version="1.0" standalone="no"?>
<!DOCTYPE svg PUBLIC "-//W3C//DTD SVG 20010904//EN"
 "http://www.w3.org/TR/2001/REC-SVG-20010904/DTD/svg10.dtd">
<svg version="1.0" xmlns="http://www.w3.org/2000/svg"
 width="360.000000pt" height="303.000000pt" viewBox="0 0 360.000000 303.000000"
 preserveAspectRatio="xMidYMid meet">

<g transform="translate(0.000000,303.000000) scale(0.100000,-0.100000)"
fill="#000000" stroke="none">
<path d="M2144 2731 c-91 -135 -134 -191 -145 -191 -6 0 -8 9 -4 23 5 16 -5
10 -40 -25 -25 -26 -52 -45 -59 -42 -17 7 -73 -107 -126 -254 -21 -59 -57
-159 -80 -222 -23 -63 -51 -142 -61 -175 -50 -157 -79 -212 -79 -152 0 12 -9
54 -20 92 -70 256 -83 307 -96 365 -8 36 -19 90 -23 121 -10 60 -47 129 -70
129 -7 0 -11 6 -8 13 6 17 -86 21 -115 6 -13 -7 -29 -7 -49 0 -27 9 -29 8 -29
-13 0 -13 -7 -29 -15 -36 -8 -7 -15 -21 -15 -32 0 -10 -7 -21 -16 -25 -11 -4
-14 -13 -9 -30 4 -16 0 -34 -10 -49 -12 -18 -13 -29 -5 -43 5 -11 10 -28 10
-39 0 -20 34 -55 63 -65 10 -4 16 -11 13 -16 -3 -5 0 -14 8 -20 8 -7 31 -57
52 -112 21 -55 48 -110 61 -123 42 -42 150 -345 126 -353 -7 -3 -6 -25 2 -64
7 -33 11 -88 8 -122 l-5 -62 66 -65 c36 -35 66 -72 66 -82 0 -31 93 -27 128 5
18 17 22 31 22 80 0 289 173 812 361 1089 22 31 39 64 39 72 0 29 51 126 65
126 11 0 15 11 15 40 0 22 -2 40 -5 40 -9 0 -55 -55 -55 -67 0 -7 -4 -13 -10
-13 -5 0 -10 4 -10 9 0 20 34 117 47 132 7 8 13 24 13 35 -1 21 -3 18 -46 -40
-24 -35 -25 -10 0 26 13 20 27 47 31 59 4 13 20 46 37 72 47 79 26 77 -28 -2z"/>
<path d="M2700 2145 c-13 -14 -28 -24 -34 -23 -6 1 -24 -5 -41 -13 -16 -9 -59
-24 -95 -34 -57 -15 -73 -16 -132 -5 -155 30 -302 -23 -433 -154 -97 -97 -145
-197 -145 -304 0 -65 18 -107 68 -154 47 -46 83 -55 257 -69 142 -11 175 -20
209 -58 19 -21 19 -22 0 -41 -67 -70 -106 -101 -197 -152 -56 -31 -107 -62
-114 -68 -7 -5 -16 -10 -20 -10 -22 0 -125 -50 -175 -85 -119 -83 -187 -140
-176 -146 11 -7 -44 -53 -65 -54 -7 -1 -25 -7 -42 -15 -16 -7 -63 -14 -103
-15 -64 -2 -75 -5 -90 -26 -27 -38 -43 -71 -37 -77 10 -10 107 20 125 38 22
22 116 58 173 66 40 5 41 5 22 -11 -11 -9 -31 -19 -45 -22 -14 -3 -36 -16 -50
-28 -14 -13 -47 -37 -75 -54 -66 -41 -50 -39 41 4 81 39 84 39 84 25 0 -17
-144 -78 -171 -73 -25 5 -124 -40 -124 -56 0 -10 -52 -54 -82 -70 -12 -6 -32
-11 -45 -11 l-23 1 25 14 c41 23 7 17 -54 -10 -31 -14 -67 -25 -80 -25 -13 0
-27 -7 -30 -16 -4 -12 -1 -14 14 -9 11 4 20 2 20 -4 0 -5 -37 -28 -83 -51 -45
-23 -86 -45 -91 -50 -20 -19 2 -19 54 1 37 14 55 17 60 9 4 -7 22 1 49 24 40
33 237 134 364 186 48 20 62 22 77 12 16 -10 26 -8 52 8 18 11 43 20 56 20 12
0 46 12 75 26 28 14 72 34 97 44 25 10 62 26 83 34 20 9 37 13 37 8 0 -4 -17
-17 -37 -28 -79 -41 -143 -79 -143 -85 0 -8 118 7 165 21 63 19 390 220 357
220 -7 0 -12 5 -12 10 0 6 7 10 16 10 8 0 39 21 67 46 29 25 77 55 107 68 78
31 158 87 205 142 22 27 49 58 60 69 24 26 28 43 28 114 0 33 -4 56 -11 59 -7
2 -12 9 -12 16 0 16 -68 80 -105 99 -41 20 -160 44 -265 52 -107 8 -191 23
-210 38 -83 63 -58 190 50 255 30 18 54 37 53 42 -4 13 71 33 75 20 2 -6 13
-10 25 -10 32 0 94 -36 158 -91 84 -72 130 -76 189 -17 34 34 72 109 88 173
11 50 8 235 -5 258 -8 16 -11 15 -33 -8z"/>
</g>
</svg>
